<svg xmlns="http://www.w3.org/2000/svg" width="40" height="26.207" viewBox="0 0 40 26.207">
    <defs>
        <style>
            .prefix__cls-1{fill:#c8414b}.prefix__cls-2{fill:#ffd250}.prefix__cls-3{fill:#f5f5f5}.prefix__cls-4{fill:#fab446}.prefix__cls-5{fill:#ffb441}.prefix__cls-6{fill:#5064aa}
        </style>
    </defs>
    <g id="prefix__esp_flag" transform="translate(0 -88.276)">
        <g id="prefix__Grupo_157" data-name="Grupo 157" transform="translate(0 88.276)">
            <path id="prefix__Trazado_290" d="M0 355.625a3 3 0 003 3h34a3 3 0 003-3V353.1H0z" class="prefix__cls-1" data-name="Trazado 290" transform="translate(0 -332.413)"/>
            <path id="prefix__Trazado_291" d="M37 88.276H3a3 3 0 00-3 3v2.522h40v-2.526a3 3 0 00-3-2.996z" class="prefix__cls-1" data-name="Trazado 291" transform="translate(0 -88.276)"/>
        </g>
        <path id="prefix__Rectángulo_809" d="M0 0H40V15.173H0z" class="prefix__cls-2" data-name="Rectángulo 809" transform="translate(0 93.793)"/>
        <path id="prefix__Trazado_292" d="M209.265 219.379l.585-2.631a.388.388 0 00-.379-.472h-.412a.388.388 0 00-.379.472z" class="prefix__cls-1" data-name="Trazado 292" transform="translate(-192.369 -117.999)"/>
        <path id="prefix__Rectángulo_810" d="M0 0H1.379V5.862H0z" class="prefix__cls-3" data-name="Rectángulo 810" transform="translate(16.207 100)"/>
        <path id="prefix__Rectángulo_811" d="M0 0H2.069V0.69H0z" class="prefix__cls-4" data-name="Rectángulo 811" transform="translate(15.862 99.311)"/>
        <g id="prefix__Grupo_158" data-name="Grupo 158" transform="translate(5.958 98.276)">
            <path id="prefix__Rectángulo_812" d="M0 0H3.448V0.69H0z" class="prefix__cls-1" data-name="Rectángulo 812" transform="translate(8.525 3.104)"/>
            <path id="prefix__Trazado_293" d="M205.1 275.034l-2.069-.69v-.69l2.069.69z" class="prefix__cls-1" data-name="Trazado 293" transform="translate(-193.13 -269.172)"/>
            <path id="prefix__Trazado_294" d="M76.851 219.379l.585-2.631a.388.388 0 00-.379-.472h-.412a.388.388 0 00-.379.472z" class="prefix__cls-1" data-name="Trazado 294" transform="translate(-76.257 -216.275)"/>
        </g>
        <path id="prefix__Trazado_295" d="M106.621 229.517a.69.69 0 00-.69.69v4.483c0 .838.782 2.414 3.448 2.414s3.448-1.576 3.448-2.414v-4.483a.69.69 0 00-.69-.69z" class="prefix__cls-3" data-name="Trazado 295" transform="translate(-97.655 -130.207)"/>
        <g id="prefix__Grupo_159" data-name="Grupo 159" transform="translate(8.276 99.31)">
            <path id="prefix__Trazado_296" d="M109.379 232.965h-3.448v-2.759a.69.69 0 01.69-.69h2.759z" class="prefix__cls-1" data-name="Trazado 296" transform="translate(-105.931 -229.517)"/>
            <path id="prefix__Trazado_297" d="M150.069 273.655h3.448v1.724a1.724 1.724 0 01-1.724 1.724 1.724 1.724 0 01-1.724-1.724z" class="prefix__cls-1" data-name="Trazado 297" transform="translate(-146.621 -270.207)"/>
        </g>
        <path id="prefix__Trazado_298" d="M105.931 273.655h3.448v1.724a1.724 1.724 0 01-1.724 1.724 1.724 1.724 0 01-1.724-1.724z" class="prefix__cls-4" data-name="Trazado 298" transform="translate(-97.655 -170.896)"/>
        <g id="prefix__Grupo_160" data-name="Grupo 160" transform="translate(8.965 102.759)">
            <path id="prefix__Trazado_299" d="M133.1 276.751v-3.1h-.69v3.413a1.707 1.707 0 00.69-.313z" class="prefix__cls-1" data-name="Trazado 299" transform="translate(-131.034 -273.655)"/>
            <path id="prefix__Trazado_300" d="M115.448 277.069v-3.413h-.69v3.1a1.708 1.708 0 00.69.313z" class="prefix__cls-1" data-name="Trazado 300" transform="translate(-114.758 -273.655)"/>
        </g>
        <path id="prefix__Rectángulo_813" d="M0 0H2.069V0.69H0z" class="prefix__cls-5" data-name="Rectángulo 813" transform="translate(8.966 101.379)"/>
        <g id="prefix__Grupo_161" data-name="Grupo 161" transform="translate(8.966 100)">
            <path id="prefix__Rectángulo_814" d="M0 0H2.069V0.69H0z" class="prefix__cls-4" data-name="Rectángulo 814"/>
            <path id="prefix__Rectángulo_815" d="M0 0H1.379V1.249H0z" class="prefix__cls-4" data-name="Rectángulo 815" transform="translate(.345 .41)"/>
        </g>
        <path id="prefix__Rectángulo_816" d="M0 0H1.379V5.862H0z" class="prefix__cls-3" data-name="Rectángulo 816" transform="translate(5.862 100)"/>
        <g id="prefix__Grupo_162" data-name="Grupo 162" transform="translate(5.517 99.311)">
            <path id="prefix__Rectángulo_817" d="M0 0H2.069V0.69H0z" class="prefix__cls-4" data-name="Rectángulo 817" transform="translate(0 6.207)"/>
            <path id="prefix__Rectángulo_818" d="M0 0H2.069V0.69H0z" class="prefix__cls-4" data-name="Rectángulo 818"/>
        </g>
        <path id="prefix__Rectángulo_819" d="M0 0H2.759V0.69H0z" class="prefix__cls-6" data-name="Rectángulo 819" transform="translate(5.173 106.207)"/>
        <path id="prefix__Rectángulo_820" d="M0 0H2.069V0.69H0z" class="prefix__cls-4" data-name="Rectángulo 820" transform="translate(16.207 105.518)"/>
        <path id="prefix__Rectángulo_821" d="M0 0H2.759V0.69H0z" class="prefix__cls-6" data-name="Rectángulo 821" transform="translate(15.517 106.207)"/>
        <path id="prefix__Rectángulo_822" d="M0 0H4.138V0.69H0z" class="prefix__cls-4" data-name="Rectángulo 822" transform="translate(9.655 98.621)"/>
        <path id="prefix__Rectángulo_823" d="M0 0H0.69V2.069H0z" class="prefix__cls-5" data-name="Rectángulo 823" transform="translate(11.38 96.552)"/>
        <g id="prefix__Grupo_163" data-name="Grupo 163" transform="translate(8.621 95.517)">
            <path id="prefix__Trazado_301" d="M129.034 183.035a1.034 1.034 0 111.035-1.035 1.036 1.036 0 01-1.035 1.035zm0-1.379a.345.345 0 10.345.345.345.345 0 00-.345-.345z" class="prefix__cls-3" data-name="Trazado 301" transform="translate(-126.621 -180.966)"/>
            <path id="prefix__Trazado_302" d="M146.69 183.035a1.034 1.034 0 111.035-1.035 1.036 1.036 0 01-1.035 1.035zm0-1.379a.345.345 0 10.345.345.345.345 0 00-.345-.345z" class="prefix__cls-3" data-name="Trazado 302" transform="translate(-142.897 -180.966)"/>
            <path id="prefix__Trazado_303" d="M164.345 191.863a1.034 1.034 0 111.034-1.034 1.036 1.036 0 01-1.034 1.034zm0-1.379a.345.345 0 10.345.345.345.345 0 00-.345-.345z" class="prefix__cls-3" data-name="Trazado 303" transform="translate(-159.173 -189.104)"/>
            <path id="prefix__Trazado_304" d="M111.379 191.863a1.034 1.034 0 111.034-1.034 1.036 1.036 0 01-1.034 1.034zm0-1.379a.345.345 0 10.345.345.345.345 0 00-.345-.345z" class="prefix__cls-3" data-name="Trazado 304" transform="translate(-110.345 -189.104)"/>
        </g>
        <path id="prefix__Trazado_305" d="M160.275 283.173v.345a.345.345 0 11-.69 0v-.345h.69m.69-.69H158.9v1.034a1.034 1.034 0 102.069 0v-1.034z" class="prefix__cls-4" data-name="Trazado 305" transform="translate(-146.482 -179.035)"/>
        <path id="prefix__Trazado_306" d="M164 240.413a.69.69 0 01-.69-.69v-.69a.69.69 0 01.69-.69.69.69 0 01.69.69v.69a.69.69 0 01-.69.69z" data-name="Trazado 306" transform="translate(-150.551 -138.344)" style="fill:#ffa0d2"/>
        <circle id="prefix__Elipse_3" cx="1.034" cy="1.034" r="1.034" class="prefix__cls-6" data-name="Elipse 3" transform="translate(10.69 101.724)"/>
        <path id="prefix__Rectángulo_824" d="M0 0H0.69V2.069H0z" class="prefix__cls-4" data-name="Rectángulo 824" transform="translate(11.38 95.172)"/>
        <path id="prefix__Trazado_307" d="M115.448 196.276l-.69-.69.4-.4a3.33 3.33 0 012.355-.975 3.33 3.33 0 012.355.975l.4.4-.69.69z" class="prefix__cls-1" data-name="Trazado 307" transform="translate(-105.793 -97.655)"/>
        <g id="prefix__Grupo_164" data-name="Grupo 164" transform="translate(10 97.586)">
            <circle id="prefix__Elipse_4" cx=".345" cy=".345" r=".345" class="prefix__cls-2" data-name="Elipse 4" transform="translate(1.38)"/>
            <circle id="prefix__Elipse_5" cx=".345" cy=".345" r=".345" class="prefix__cls-2" data-name="Elipse 5"/>
            <circle id="prefix__Elipse_6" cx=".345" cy=".345" r=".345" class="prefix__cls-2" data-name="Elipse 6" transform="translate(2.759)"/>
        </g>
        <g id="prefix__Grupo_165" data-name="Grupo 165" transform="translate(5.517 101.379)">
            <path id="prefix__Rectángulo_825" d="M0 0H3.448V0.69H0z" class="prefix__cls-1" data-name="Rectángulo 825"/>
            <path id="prefix__Trazado_308" d="M70.621 275.034l2.069-.69v-.69l-2.069.69z" class="prefix__cls-1" data-name="Trazado 308" transform="translate(-70.621 -272.276)"/>
        </g>
    </g>
</svg>
