<svg xmlns="http://www.w3.org/2000/svg" width="118.999" height="132.191" viewBox="0 0 118.999 132.191">
  <g id="Grupo_3009" data-name="Grupo 3009" transform="translate(-2886.37 1218.652)">
    <path id="Trazado_5099" data-name="Trazado 5099" d="M3307.958-796.438l9.575-26.532h-6.383l-6.845,21.88-6.729-21.88h-6.537l9.459,26.532Z" transform="translate(-335.084 -327.642)" fill="#fff"/>
    <g id="Grupo_2997" data-name="Grupo 2997" transform="translate(2886.747 -1092.167)">
      <path id="Trazado_5100" data-name="Trazado 5100" d="M2888.564-477.467v-5.611h.743v5.611Z" transform="translate(-2888.564 483.078)" fill="#fff"/>
    </g>
    <g id="Grupo_2998" data-name="Grupo 2998" transform="translate(2894.484 -1092.167)">
      <path id="Trazado_5101" data-name="Trazado 5101" d="M2933.558-477.467v-5.611h.762l2.947,4.405v-4.405h.712v5.611h-.762l-2.947-4.409v4.409Z" transform="translate(-2933.558 483.078)" fill="#fff"/>
    </g>
    <g id="Grupo_2999" data-name="Grupo 2999" transform="translate(2905.899 -1092.167)">
      <path id="Trazado_5102" data-name="Trazado 5102" d="M2999.94-477.467v-5.611h1.118l1.328,3.972q.184.555.268.831.1-.306.3-.9l1.344-3.9h1v5.611h-.716v-4.7l-1.63,4.7h-.67l-1.623-4.776v4.776Z" transform="translate(-2999.94 483.078)" fill="#fff"/>
    </g>
    <g id="Grupo_3000" data-name="Grupo 3000" transform="translate(2918.248 -1092.267)">
      <path id="Trazado_5103" data-name="Trazado 5103" d="M3071.753-480.679a3.049,3.049,0,0,1,.75-2.187,2.552,2.552,0,0,1,1.937-.79,2.689,2.689,0,0,1,1.4.371,2.428,2.428,0,0,1,.951,1.035,3.361,3.361,0,0,1,.327,1.506,3.307,3.307,0,0,1-.344,1.527,2.348,2.348,0,0,1-.976,1.02,2.787,2.787,0,0,1-1.362.346,2.652,2.652,0,0,1-1.416-.383,2.461,2.461,0,0,1-.945-1.045A3.162,3.162,0,0,1,3071.753-480.679Zm.766.011a2.248,2.248,0,0,0,.545,1.6,1.793,1.793,0,0,0,1.368.584,1.79,1.79,0,0,0,1.379-.589,2.382,2.382,0,0,0,.542-1.672,2.874,2.874,0,0,0-.231-1.2,1.777,1.777,0,0,0-.677-.792,1.836,1.836,0,0,0-1-.281,1.9,1.9,0,0,0-1.356.542A2.419,2.419,0,0,0,3072.519-480.668Z" transform="translate(-3071.753 483.657)" fill="#fff"/>
    </g>
    <g id="Grupo_3001" data-name="Grupo 3001" transform="translate(2930.607 -1092.167)">
      <path id="Trazado_5104" data-name="Trazado 5104" d="M3143.633-477.467v-5.611h2.1a2.61,2.61,0,0,1,1.031.17,1.329,1.329,0,0,1,.609.524,1.383,1.383,0,0,1,.22.74,1.272,1.272,0,0,1-.2.677,1.4,1.4,0,0,1-.589.513,1.465,1.465,0,0,1,.783.509,1.364,1.364,0,0,1,.274.85,1.64,1.64,0,0,1-.167.733,1.416,1.416,0,0,1-.412.522,1.711,1.711,0,0,1-.614.278,3.74,3.74,0,0,1-.905.094Zm.743-3.253h1.213a2.708,2.708,0,0,0,.708-.065.786.786,0,0,0,.427-.279.8.8,0,0,0,.144-.49.9.9,0,0,0-.134-.492.68.68,0,0,0-.383-.291,3.2,3.2,0,0,0-.854-.078h-1.121Zm0,2.591h1.4a3.189,3.189,0,0,0,.505-.027,1.212,1.212,0,0,0,.428-.153.814.814,0,0,0,.283-.312.976.976,0,0,0,.111-.473.934.934,0,0,0-.16-.545.85.85,0,0,0-.446-.325,2.766,2.766,0,0,0-.821-.094h-1.3Z" transform="translate(-3143.633 483.078)" fill="#fff"/>
    </g>
    <g id="Grupo_3002" data-name="Grupo 3002" transform="translate(2941.838 -1092.167)">
      <path id="Trazado_5105" data-name="Trazado 5105" d="M3208.948-477.467v-5.611h.742v5.611Z" transform="translate(-3208.948 483.078)" fill="#fff"/>
    </g>
    <g id="Grupo_3003" data-name="Grupo 3003" transform="translate(2949.575 -1092.167)">
      <path id="Trazado_5106" data-name="Trazado 5106" d="M3253.94-477.467v-5.611h.743v4.948h2.763v.662Z" transform="translate(-3253.94 483.078)" fill="#fff"/>
    </g>
    <g id="Grupo_3004" data-name="Grupo 3004" transform="translate(2960.075 -1092.167)">
      <path id="Trazado_5107" data-name="Trazado 5107" d="M3315-477.467v-5.611h.743v5.611Z" transform="translate(-3315.004 483.078)" fill="#fff"/>
    </g>
    <g id="Grupo_3005" data-name="Grupo 3005" transform="translate(2967.812 -1092.167)">
      <path id="Trazado_5108" data-name="Trazado 5108" d="M3360-477.467l2.154-5.611h.8l2.3,5.611h-.846l-.655-1.7H3361.4l-.616,1.7Zm1.619-2.3h1.9l-.586-1.554q-.268-.708-.4-1.163a7.1,7.1,0,0,1-.3,1.071Z" transform="translate(-3359.998 483.078)" fill="#fff"/>
    </g>
    <g id="Grupo_3006" data-name="Grupo 3006" transform="translate(2980.057 -1092.167)">
      <path id="Trazado_5109" data-name="Trazado 5109" d="M3431.209-477.467v-5.611h2.487a3.307,3.307,0,0,1,1.141.151,1.248,1.248,0,0,1,.624.534,1.6,1.6,0,0,1,.233.846,1.41,1.41,0,0,1-.387,1.006,1.956,1.956,0,0,1-1.194.521,1.942,1.942,0,0,1,.448.279,3.88,3.88,0,0,1,.616.746l.976,1.527h-.934l-.743-1.167q-.325-.505-.536-.773a1.687,1.687,0,0,0-.377-.375,1.117,1.117,0,0,0-.339-.149,2.227,2.227,0,0,0-.413-.027h-.861v2.491Zm.743-3.134h1.6a2.394,2.394,0,0,0,.8-.105.844.844,0,0,0,.436-.337.91.91,0,0,0,.149-.5.836.836,0,0,0-.289-.654,1.354,1.354,0,0,0-.913-.257h-1.775Z" transform="translate(-3431.209 483.078)" fill="#fff"/>
    </g>
    <g id="Grupo_3007" data-name="Grupo 3007" transform="translate(2991.996 -1092.167)">
      <path id="Trazado_5110" data-name="Trazado 5110" d="M3500.641-477.467v-5.611h.743v5.611Z" transform="translate(-3500.641 483.078)" fill="#fff"/>
    </g>
    <g id="Grupo_3008" data-name="Grupo 3008" transform="translate(2999.733 -1092.167)">
      <path id="Trazado_5111" data-name="Trazado 5111" d="M3545.635-477.467l2.155-5.611h.8l2.3,5.611h-.846l-.655-1.7h-2.346l-.616,1.7Zm1.619-2.3h1.9l-.586-1.554q-.268-.708-.4-1.163a7.19,7.19,0,0,1-.3,1.071Z" transform="translate(-3545.635 483.078)" fill="#fff"/>
    </g>
    <path id="Trazado_5112" data-name="Trazado 5112" d="M2886.37-1218.652v119h119v-119ZM2998.1-1106.923H2893.64L2998.1-1211.382Z" transform="translate(0)" fill="#978510" fill-rule="evenodd"/>
    <rect id="Rectángulo_1785" data-name="Rectángulo 1785" width="7.129" height="31.336" transform="translate(2916.224 -1199.584)" fill="#fff"/>
  </g>
</svg>
