<svg xmlns="http://www.w3.org/2000/svg" width="249.999" height="54.055" viewBox="0 0 249.999 54.055">
  <g id="Grupo_3186" data-name="Grupo 3186" transform="translate(-2626.365 -124.113)">
    <rect id="Rect치ngulo_1825" data-name="Rect치ngulo 1825" width="107.754" height="54.055" transform="translate(2626.365 124.113)" fill="#978510"/>
    <rect id="Rect치ngulo_1826" data-name="Rect치ngulo 1826" width="5.989" height="26.325" transform="translate(2636.5 138.56)" fill="#fff"/>
    <path id="Trazado_6772" data-name="Trazado 6772" d="M2766.372,235.119V208.794h-5.951v11.713c0,1.945.038,4.921.19,7.668L2750,208.794h-7.669v26.325h5.99V223.673c0-1.908-.038-4.616-.229-7.4l10.3,18.847Z" transform="translate(-96.185 -70.234)" fill="#fff"/>
    <path id="Trazado_6773" data-name="Trazado 6773" d="M2933.8,208.794h-9.156l-5.3,20.641-5.3-20.641h-9.385v26.325h5.991V223.444c0-2.555,0-5.989-.076-8.7.494,2.709,1.372,6.143,2.1,8.66l3.4,11.713h6.333l3.32-11.713c.763-2.517,1.64-5.989,2.175-8.7-.077,2.709-.077,6.181-.077,8.737v11.675h5.99Z" transform="translate(-230.81 -70.234)" fill="#fff"/>
    <path id="Trazado_6774" data-name="Trazado 6774" d="M3102.8,228.63c-4.388,0-7.058-3.395-7.058-9.27,0-5.914,2.67-9.271,7.058-9.271,4.35,0,7.02,3.357,7.02,9.271,0,5.875-2.669,9.27-7.02,9.27m0-22.967c-8.164,0-13.239,5.341-13.239,13.7,0,8.317,5.075,13.7,13.239,13.7,8.126,0,13.2-5.379,13.2-13.7C3116,211,3110.922,205.663,3102.8,205.663Z" transform="translate(-384.166 -67.637)" fill="#fff"/>
    <path id="Trazado_6775" data-name="Trazado 6775" d="M3294.825,235.119l9.5-26.325h-6.333L3291.2,230.5l-6.676-21.709h-6.485l9.385,26.325Z" transform="translate(-540.491 -70.234)" fill="#fff"/>
    <path id="Trazado_6776" data-name="Trazado 6776" d="M3434.478,213.982l2.785,9.005h-5.608Zm4.274,13.7,2.4,7.44h6.485l-9.385-26.325h-7.4l-9.5,26.325h6.371l2.442-7.44Z" transform="translate(-659.355 -70.234)" fill="#fff"/>
    <path id="Trazado_6777" data-name="Trazado 6777" d="M3600.975,230.081H3587.43V208.792h-5.99v26.325h19.534Z" transform="translate(-792.129 -70.232)" fill="#fff"/>
    <path id="Trazado_6778" data-name="Trazado 6778" d="M3727.522,230.081h-13.544V208.792h-5.99v26.325h19.534Z" transform="translate(-897.086 -70.232)" fill="#fff"/>
    <path id="Trazado_6779" data-name="Trazado 6779" d="M3854.071,230.425h-13.544v-6.18h12.285v-4.655h-12.285v-6.142h13.163v-4.655h-19.152v26.325h19.534Z" transform="translate(-1002.045 -70.232)" fill="#fff"/>
    <path id="Trazado_6780" data-name="Trazado 6780" d="M3963.154,224.972l9.271-16.176h-6.562l-5.495,10.988-5.722-10.988h-6.753l9.309,16.253v10.072h5.951Z" transform="translate(-1096.061 -70.235)" fill="#fff"/>
    <g id="Grupo_3174" data-name="Grupo 3174" transform="translate(2738.526 170.409)">
      <path id="Trazado_6781" data-name="Trazado 6781" d="M3283.775,400.974v-5.507h.729v5.507Z" transform="translate(-3283.775 -395.467)" fill="#fff"/>
    </g>
    <g id="Grupo_3175" data-name="Grupo 3175" transform="translate(2748.383 170.409)">
      <path id="Trazado_6782" data-name="Trazado 6782" d="M3341.547,400.974v-5.507h.747l2.892,4.323v-4.323h.7v5.507h-.748l-2.892-4.327v4.327Z" transform="translate(-3341.547 -395.467)" fill="#fff"/>
    </g>
    <g id="Grupo_3176" data-name="Grupo 3176" transform="translate(2761.774 170.409)">
      <path id="Trazado_6783" data-name="Trazado 6783" d="M3420.033,400.974v-5.507h1.1l1.3,3.9q.18.545.262.815.094-.3.293-.883l1.318-3.831h.98v5.507h-.7v-4.609l-1.6,4.609h-.657l-1.593-4.688v4.688Z" transform="translate(-3420.033 -395.467)" fill="#fff"/>
    </g>
    <g id="Grupo_3177" data-name="Grupo 3177" transform="translate(2775.833 170.311)">
      <path id="Trazado_6784" data-name="Trazado 6784" d="M3502.439,397.816a2.992,2.992,0,0,1,.736-2.147,2.5,2.5,0,0,1,1.9-.776,2.638,2.638,0,0,1,1.375.364,2.383,2.383,0,0,1,.933,1.016,3.3,3.3,0,0,1,.321,1.478,3.242,3.242,0,0,1-.338,1.5,2.307,2.307,0,0,1-.958,1,2.737,2.737,0,0,1-1.337.34,2.6,2.6,0,0,1-1.39-.376,2.414,2.414,0,0,1-.928-1.025A3.106,3.106,0,0,1,3502.439,397.816Zm.751.011a2.206,2.206,0,0,0,.535,1.568,1.867,1.867,0,0,0,2.7-.006,2.338,2.338,0,0,0,.531-1.641,2.815,2.815,0,0,0-.227-1.174,1.744,1.744,0,0,0-.665-.778,1.8,1.8,0,0,0-.982-.276,1.865,1.865,0,0,0-1.332.531A2.376,2.376,0,0,0,3503.191,397.828Z" transform="translate(-3502.439 -394.894)" fill="#fff"/>
    </g>
    <g id="Grupo_3178" data-name="Grupo 3178" transform="translate(2789.858 170.409)">
      <path id="Trazado_6785" data-name="Trazado 6785" d="M3584.647,400.974v-5.507h2.066a2.556,2.556,0,0,1,1.012.167,1.3,1.3,0,0,1,.6.515,1.356,1.356,0,0,1,.216.727,1.251,1.251,0,0,1-.191.665,1.368,1.368,0,0,1-.579.5,1.439,1.439,0,0,1,.768.5,1.339,1.339,0,0,1,.269.834,1.609,1.609,0,0,1-.163.719,1.39,1.39,0,0,1-.4.513,1.682,1.682,0,0,1-.6.272,3.66,3.66,0,0,1-.888.092Zm.729-3.193h1.191a2.662,2.662,0,0,0,.695-.064.774.774,0,0,0,.419-.274.789.789,0,0,0,.141-.481.884.884,0,0,0-.132-.483.664.664,0,0,0-.375-.285,3.14,3.14,0,0,0-.838-.077h-1.1Zm0,2.543h1.371a3.148,3.148,0,0,0,.5-.026,1.19,1.19,0,0,0,.421-.15.8.8,0,0,0,.278-.306.957.957,0,0,0,.109-.464.915.915,0,0,0-.157-.535.835.835,0,0,0-.438-.319,2.709,2.709,0,0,0-.805-.092h-1.274Z" transform="translate(-3584.647 -395.467)" fill="#fff"/>
    </g>
    <g id="Grupo_3179" data-name="Grupo 3179" transform="translate(2802.994 170.409)">
      <path id="Trazado_6786" data-name="Trazado 6786" d="M3661.639,400.974v-5.507h.728v5.507Z" transform="translate(-3661.639 -395.467)" fill="#fff"/>
    </g>
    <g id="Grupo_3180" data-name="Grupo 3180" transform="translate(2812.828 170.409)">
      <path id="Trazado_6787" data-name="Trazado 6787" d="M3719.276,400.974v-5.507h.729v4.857h2.711v.65Z" transform="translate(-3719.276 -395.467)" fill="#fff"/>
    </g>
    <g id="Grupo_3181" data-name="Grupo 3181" transform="translate(2825.111 170.409)">
      <path id="Trazado_6788" data-name="Trazado 6788" d="M3791.27,400.974v-5.507H3792v5.507Z" transform="translate(-3791.27 -395.467)" fill="#fff"/>
    </g>
    <g id="Grupo_3182" data-name="Grupo 3182" transform="translate(2834.37 170.409)">
      <path id="Trazado_6789" data-name="Trazado 6789" d="M3845.54,400.974l2.115-5.507h.785l2.253,5.507h-.83l-.643-1.668h-2.3l-.6,1.668Zm1.589-2.261H3849l-.575-1.525q-.263-.695-.39-1.142a7.017,7.017,0,0,1-.3,1.052Z" transform="translate(-3845.54 -395.467)" fill="#fff"/>
    </g>
    <g id="Grupo_3183" data-name="Grupo 3183" transform="translate(2847.967 170.409)">
      <path id="Trazado_6790" data-name="Trazado 6790" d="M3925.238,400.974v-5.507h2.441a3.247,3.247,0,0,1,1.119.148,1.223,1.223,0,0,1,.613.524,1.562,1.562,0,0,1,.229.83,1.386,1.386,0,0,1-.379.988,1.922,1.922,0,0,1-1.172.511,1.885,1.885,0,0,1,.439.274,3.782,3.782,0,0,1,.6.732l.958,1.5h-.917l-.729-1.146q-.319-.5-.526-.759a1.655,1.655,0,0,0-.37-.368,1.1,1.1,0,0,0-.333-.147,2.2,2.2,0,0,0-.406-.026h-.845v2.445Zm.729-3.076h1.566a2.347,2.347,0,0,0,.781-.1.829.829,0,0,0,.428-.331.892.892,0,0,0,.147-.494.821.821,0,0,0-.284-.642,1.328,1.328,0,0,0-.9-.252h-1.743Z" transform="translate(-3925.238 -395.467)" fill="#fff"/>
    </g>
    <g id="Grupo_3184" data-name="Grupo 3184" transform="translate(2861.486 170.409)">
      <path id="Trazado_6791" data-name="Trazado 6791" d="M4004.475,400.974v-5.507h.729v5.507Z" transform="translate(-4004.475 -395.467)" fill="#fff"/>
    </g>
    <g id="Grupo_3185" data-name="Grupo 3185" transform="translate(2870.745 170.409)">
      <path id="Trazado_6792" data-name="Trazado 6792" d="M4058.744,400.974l2.115-5.507h.785l2.254,5.507h-.83l-.642-1.668h-2.3l-.6,1.668Zm1.589-2.261h1.867l-.575-1.525q-.263-.695-.39-1.142a7.045,7.045,0,0,1-.3,1.052Z" transform="translate(-4058.744 -395.467)" fill="#fff"/>
    </g>
  </g>
</svg>
